<mxfile host="app.diagrams.net" modified="2024-03-15T18:11:49.332Z" agent="Mozilla/5.0 (Windows NT 10.0; Win64; x64) AppleWebKit/537.36 (KHTML, like Gecko) Chrome/121.0.0.0 Safari/537.36 OPR/107.0.0.0" etag="wmARetnsV49aNrCf5tZU" version="24.0.7" type="device">
  <diagram id="R2lEEEUBdFMjLlhIrx00" name="Page-1">
    <mxGraphModel dx="1466" dy="798" grid="1" gridSize="10" guides="1" tooltips="1" connect="1" arrows="1" fold="1" page="1" pageScale="1" pageWidth="850" pageHeight="1100" math="0" shadow="0" extFonts="Permanent Marker^https://fonts.googleapis.com/css?family=Permanent+Marker">
      <root>
        <mxCell id="0" />
        <mxCell id="1" parent="0" />
        <mxCell id="vU_a4oCjIOhegHTT4Q5L-1" value="" style="shape=image;verticalLabelPosition=bottom;labelBackgroundColor=default;verticalAlign=top;aspect=fixed;imageAspect=0;image=data:image/png,iVBORw0KGgoAAAANSUhEUgAABFUAAAGoCAYAAACHV9qrAAAAAXNSR0IArs4c6QAAAARnQU1BAACxjwv8YQUAAAAJcEhZcwAADsMAAA7DAcdvqGQAAE5eSURBVHhe7d2/rmvpmdhpZe5OugGHfQeeUeIbECqxMbY6EiAJvgQbUFhAwwVXYQoVGL4KJyXMBCOge2KnUjDowM6EmQE8IwNCl9MuTdBSndkfN7m5SP4Wuc4htffi4fMAr3T2v9/m2XW+RfItVtX3fvf//eHdEv/9v29/cYFe02t6Ta/pNb2m1/SaXtNrek2v6TW9ptfW3LNUmaHX9Jpe02t6Ta/pNb2m1/SaXtNrek2vPVLPUmWGXtNrek2v6TW9ptf0ml7Ta3pNr+k1vfZIPUuVGXpNr+k1vabX9Jpe02t6Ta/pNb2m1/TaI/UsVWboNb2m1/SaXtNrek2v6TW9ptf0ml7Ta4/U2yxVRvBWo3fd6F03eteN3nWjd93oXTd6143edaN33ehdN3rXjd51o3fdfAw9r1SZodf0ml7Ta3pNr+k1vabX9Jpe02t6Ta89Us9SZYZe02t6Ta/pNb2m1/SaXtNrek2v6TW99kg9S5UZek2v6TW9ptf0ml7Ta3pNr+k1vabX9Noj9SxVZug1vabX9Jpe02t6Ta/pNb2m1/SaXtNrj9SzVJmh1/SaXtNrek2v6TW9ptf0ml7Ta3pNrz1Sz1Jlhl7Ta3pNr+k1vabX9Jpe02t6Ta/pNb32SD1LlRl6Ta/pNb2m1/SaXtNrek2v6TW9ptf02iP1LFVm6DW9ptf0ml7Ta3pNr+k1vabX9Jpe02uP1LNUmaHX9Jpe02t6Ta/pNb2m1/SaXtNrek2vPVJvs1QxxhhjjDHGGGOMMe83XqkyQ6/pNb2m1/SaXtNrek2v6TW9ptf0ml57pJ6lygy9ptf0ml7Ta3pNr+k1vabX9Jpe02t67ZF6lioz9Jpe02t6Ta/pNb2m1/SaXtNrek2v6bVH6lmqzNBrek2v6TW9ptf0ml7Ta3pNr+k1vabXHqlnqTJDr+k1vabX9Jpe02t6Ta/pNb2m1/SaXnuknqXKDL2m1/SaXtNrek2v6TW9ptf0ml7Ta3rtkXqWKjP0ml7Ta3pNr+k1vabX9Jpe02t6Ta/ptUfqWarM0Gt6Ta/pNb2m1/SaXtNrek2v6TW9ptceqWepMkOv6TW9ptf0ml7Ta3pNr+k1vabX9Jpee6TeZqkygrcavetG77rRu270rhu960bvutG7bvSuG73rRu+60btu9K4bvevmY+h5pcoMvabX9Jpe02t6Ta/pNb2m1/SaXtNreu2RepYqM/SaXtNrek2v6TW9ptf0ml7Ta3pNr+m1R+pZqszQa3pNr+k1vabX9Jpe02t6Ta/pNb2m1x6pZ6kyQ6/pNb2m1/SaXtNrek2v6TW9ptf0ml57pJ6lygy9ptf0ml7Ta3pNr+k1vabX9Jpe02t67ZF6lioz9Jpe02t6Ta/pNb2m1/SaXtNrek2v6bVH6lmqzNBrek2v6TW9ptf0ml7Ta3pNr+k1vabXHqlnqTJDr+k1vabX9Jpe02t6Ta/pNb2m1/SaXnuknqXKDL2m1/SaXtNrek2v6TW9ptf0ml7Ta3rtkXqbpYoxxhhjjDHGGGOMeb/xSpUZek2v6TW9ptf0ml7Ta3pNr+k1vabX9Noj9SxVZug1vabX9Jpe02t6Ta/pNb2m1/SaXtNrj9Rb5VLlk08+efe9733PGHNhfvCDT7an5rxHuqgNem3tvfHnuf6cG2MOZzxOmuP60vSaXtNrek2vPVJvlUuV8YABuGzpWXmki9qg19bec+2HZc6dFdeXptf0ml7Ta3rtkXqWKnDHLFWaXlt7z7UflrFU2dNrek2v6TW9pnfKUgXumKVK02tr77n2wzKWKnt6Ta/pNb2m1/ROWarAHbNUaXpt7T3XfljGUmVPr+k1vabX9JreKUsVuGOWKk2vrb3n2g/LWKrs6TW9ptf0ml7TO2WpAnfMUqXptbX3XPthGUuVPb2m1/SaXtNreqc2S5URvNXcoueBNSwzzkqdoQ+dNV4PpqN33ay959oPy9zi2u96dd3oXTd6143edaN33eidjleqwB1belZe8/xO6TW95toPy5w7K64vTa/pNb2m1/TaI/UsVeCOWao0vbb2nms/LGOpsqfX9Jpe02t6Te+UpQrcMUuVptfW3nPth2UsVfb0ml7Ta3pNr+mdslSBO2ap0vTa2nuu/bCMpcqeXtNrek2v6TW9U5YqcMcsVZpeW3vPtR+WsVTZ02t6Ta/pNb2md8pSBe6YpUrTa2vvufbDMpYqe3pNr+k1vabX9E5ZqsAds1Rpem3tPdd+WMZSZU+v6TW9ptf0mt4pSxW4Y5YqTa+tvefaD8tYquzpNb2m1/SaXtM7ZakCd8xSpem1tfdc+2EZS5U9vabX9Jpe02t6pzZLlbWNB9awzDgrdYaMucdx7YdlXPuNMcaY9YxXqsAdW3pWHmlTPOi1tfdc+2GZc2fF9aXpNb2m1/SaXnuknqUK3DFLlabX1t5z7YdlLFX29Jpe02t6Ta/pnbJUgTtmqdL02tp7rv2wjKXKnl7Ta3pNr+k1vVOWKnDHLFWaXlt7z7UflrFU2dNrek2v6TW9pnfKUgXumKVK02tr77n2wzKWKnt6Ta/pNb2m1/ROWarAHbNUaXpt7T3XfljGUmVPr+k1vabX9JreKUsVuGOWKk2vrb3n2g/LWKrs6TW9ptf0ml7TO2WpAnfMUqXptbX3XPthGUuVPb2m1/SaXtNreqcsVeCOWao0vbb2nms/LGOpsqfX9Jpe02t6Te/UZqkygreaW/Q8sIZlxlmpM/Shs8brwXT0rpu191z7YZlbXPtdr64bvetG77rRu270rhu90/FKFbhjS8/Ka57fKb2m11z7YZlzZ8X1pek1vabX9Jpee6SepQrcMUuVptfW3nPth2UsVfb0ml7Ta3pNr+mdslSBO2ap0vTa2nuu/bCMpcqeXtNrek2v6TW9U5YqcMfGWfnuu+8uzjff9PuP59vf/T7ffzx6PXo9S3uu/bCMpcqeXtNrek2v6TW9U5YqcMfGWfnDH/5wcf7u7/r9x/P33/5Dvv949Hr0epb2XPthGUuVPb2m1/SaXtNreqcsVeCOWar06PWsvefaD8tYquzpNb2m1/SaXtM7ZakCd8xSpUevZ+09135YxlJlT6/pNb2m1/Sa3ilLFbhjlio9ej1r77n2wzKWKnt6Ta/pNb2m1/ROWarAHbNU6dHrWXvPtR+WsVTZ02t6Ta/pNb2md2qzVFnbeGANy4yzMp7YGvMxjGs/LDPOSj1+MsYYY8zrj1eqwB0bZ6X+jv/xeGVEj17PW/Vc+2GZc2flkf7O4KDX9Jpe02t6Te+UpQrcMUuVHr2eNfd+8YtfuPbDQpYqe3pNr+k1vabX9E5ZqsAdq6XKF198sZnp+8aT2nr/8VgK9Oj1XOrt/syd6/36179+99Of/vTd97//fdd+WMhSZU+v6TW9ptf0mt4pS5W78ct3Xz39XMbP5mS+/OX2c3g046//8ZPUWp6MJ7X1/uOxFOjR67nU2/2Zm+t9+eWXmz/D4//H2+PXH71ffbW/du/mx1+/++32w7DEubPySA9iB72m1/SaXtNreqcsVe7GWKp89fS/R8YDdEuVhzXOyvET1VqejCe19f7jsRTo0eu51Nv9mTvujX/UZ7wy5Sc/+cnmlSq79z/EtX9cs6dLlN98/e5Hliq8J0uVPb2m1/SaXtNreqcsVe7GwqXK9O+CvjxQ/+27r3/8o3df/2b8+vkVL1/9arxv/P/mEzZ++eX27fg7qT/6+e4h/9ErZsb3js//3u62jicMx+8bZr/H9LY+2Xz95G0OjJ/b9MnqmFqejCe19f7jsRTo0eu51Nv9mdv1pv+oz1isHH/++PP80RvXvnNLlbhm/vbnP9q+PZnxNaMVS/XN59ey/ejzDz/v+T7hoL/9yNS4nzi4HdPr87nr/fb7bL7nU/t/f+rs71ee3795+6Cxne3XvtxHbW/r+Pzxvux85MbPZc4jPYgd9Jpe02t6Ta/pnbJUuRsLlirbB6PTB53PH9svKqYPOA8fUE/68cD7+Wv2D2Q3Nt9v8oB6fN3BA/HdAmf71ngwvvv42e+xbz4/gLdUmTPOyvET01qejCe19f7jsRTo0eu51Nv9mRu943/Up+Yhrv3H18lxHX15+/maubvGHlwznxxes58cXUd3Tj5vJ667u7c33+vlY4fX7qnxefv3T6/XZ277y/c9up95+b1NOgc/jyeT2/zyvae/j7nOR85SZU+v6TW9ptf0mt4pS5W7MXkwOjX74PLJeHvzNbsHmkeN6YPX487u10/2C49jozd5ADv7/bc2S5jJA+r8HpMHxZvP+fphHiR/iHFWdk9cd/PJJ59sZvq+Tz/t9x/PZ599nu8/ntGr9x+PXs+j9Maft/GqlD/7sz/f/P/Pfvaz/LzdPPxSZXqNHDZv769/f8ylyqFxHX7Ppcq52779vof3JZP7o+OfwfH9yPY2Pn/v48XJTOcjZ6myp9f0ml7Ta3pN75Slyt24vFTZPEA+frC++ZrnB8inr/jYPzg9eKAcD7xfHgiPjz399dnPpDk+dvxg+OBzJ58/+z12t+n4/58/j0PjZ3r8xNRSRW9uXrtnqRKOr5PTRcDmmjm9zh8urk+WICfX2OevPfm8nbom7z5vc39x+LH3Wqqcu+2773t0m3atg/uYC0uVul3Z+ciNn8OcR3oQO+g1vabX9Jpe0zu1WaqM4K3mFr1zDxYe1+WlyubXJ0uN3VKlFxTPD0K/PmxPm0/2D1THbZg+oD18wJ/ff/r21Oz32N7Gn+8+bqlyzjgr4x+tmM54Qjxm6funM/5xjnr/h47edXPvvemfub/6q+d//Gf8//Hn7eYhrv3H18XpEuFlEb61eXt//RvXyel1s66j4+2Tz9uZ+fzn6+z0303y/Pbx8mKYXaqcu+2773v0/Z/fPno14vTnMUy+Zve9D2/Dk+p85MZZqcdP7zNrfPw3Hb3rRu+60btu9K4bvevmLXpeqXI3FixVNg9idw82nx8U7x8wTx74Hj+gf/qa0we6+7f3C4/DpcrmAfm5pUp+/vb3MPs9trf7pTu57ZwYZ+X430ux+7v+0/eNJ6z1/uMZT5Lr/cczevX+49HreZTe7s/crjf+RbXjv/jzqP+i2t/+5ukad3TtO7wmP18zd8uNzSszJtfU/RJkK66j4+2Tz9uZ+fzn6+xkqTI+b3Ltnppdqpy77ZPve/j1z18zu2Qa8mvH103vD6PzkTt3Vl7z8dqUXtNrek2v6TW99hY9S5W7cfwgcuvoQfLuwfBmXh5gHi4mxgPTlwfPm48dPXg+au4XHs+/3vV/9PNfHn7t+LrjB7W7pc1mnm/DrrG/DdPvcfTg/ui2c2j8HI+fmNbyZDyprfcfj6VAj17Ppd7uz9xxb/efVB7/JaBH+k8q7659B9fbuUX3Zg6v+Zuvn7veTz7/5PN24tr+8va09fS+w/uJvcOlyNH1ee62T7/v5nP2Hzv5Psc/j8nXTr/38e9x7vZ+rMbPeM4jPYgd9Jpe02t6Ta/pnbJUeXRHD3C5L+OsTJ+sjqnlyXhSW+8/HkuBHr2eS73dn7m53vF/Eci1/9GMv1lwi6X5rTr3w1JlT6/pNb2m1/Sa3ilLlUe2/TuTB3/XlLsy/vodP1Gt5cl4UlvvPx5LgR69nku93Z+5c73xSpXxipXxyhXX/geyfVXL1a8uuVXnzliq7Ok1vabX9Jpe0ztlqQJ3rJYqNZYCPXo9b9Eb/0iQaz8sY6myp9f0ml7Ta3pN75SlCtwxS5UevZ6191z7YRlLlT29ptf0ml7Ta3qnLFXgjlmq9Oj1rL3n2g/LWKrs6TW9ptf0ml7TO2WpAnfMUqVHr2ftPdd+WMZSZU+v6TW9ptf0mt4pSxW4Y5YqPXo9a++59sMylip7ek2v6TW9ptf0Tm2WKmsbD6xhmXFWxhNbYz6Gce2HZcZZqcdPxhhjjHn98UoVuGPjrNTf8T8er4zo0et5q55rPyxz7qw80t8ZHPSaXtNrek2v6Z2yVIE7ZqnSo9ez9p5rPyxjqbKn1/SaXtNrek3vlKUK3LFxVr777ruL8803/f7j+fZ3v8/3H49ej17P0p5rPyxjqbKn1/SaXtNrek3vlKUK3LGlZ+WRLmqDXlt7z7UflrFU2dNrek2v6TW9pnfKUgXumKVK02tr77n2wzKWKnt6Ta/pNb2m1/ROWarAHbNUaXpt7T3XfljGUmVPr+k1vabX9JreKUsVuGOWKk2vrb3n2g/LWKrs6TW9ptf0ml7TO2WpAnfMUqXptbX3XPthGUuVPb2m1/SaXtNreqcsVeCOWao0vbb2nms/LGOpsqfX9Jpe02t6Te/UZqkygreaW/Q8sIZlxlmpM/Shs8brwXT0rpu191z7YZlbXPtdr64bvetG77rRu270rhu90/FKFbhjS8/Ka57fKb2m11z7YZlzZ8X1pek1vabX9Jpee6SepQrcMUuVptfW3nPth2UsVfb0ml7Ta3pNr+mdslSBO2ap0vTa2nuu/bCMpcqeXtNrek2v6TW9U5YqcMcsVZpeW3vPtR+WsVTZ02t6Ta/pNb2md8pSBe6YpUrTa2vvufbDMpYqe3pNr+k1vabX9E5ZqsAds1Rpem3tPdd+WMZSZU+v6TW9ptf0mt4pSxW4Y5YqTa+tvefaD8tYquzpNb2m1/SaXtM7ZakCd8xSpem1tfdc+2EZS5U9vabX9Jpe02t6pyxV4I5ZqjS9tvaeaz8sY6myp9f0ml7Ta3pN79RmqbK28cAalhlnpc6QMfc4rv2wjGu/McYYs57xShW4Y0vPyiNtige9tvaeaz8sc+6suL40vabX9Jpe02uP1LNUgTtmqdL02tp7rv2wjKXKnl7Ta3pNr+k1vVOWKnDHLFWaXlt7z7UflrFU2dNrek2v6TW9pnfKUgXumKVK02tr77n2wzKWKnt6Ta/pNb2m1/ROWarAHbNUaXpt7T3XfljGUmVPr+k1vabX9JreKUsVuGOWKk2vrb3n2g/LWKrs6TW9ptf0ml7TO2WpAnfMUqXptbX3XPthGUuVPb2m1/SaXtNreqcsVeCOWao0vbb2nms/LGOpsqfX9Jpe02t6Te+UpQrcMUuVptfW3nPth2UsVfb0ml7Ta3pNr+md2ixVRvBWc4ueB9awzDgrdYY+dNZ4PZiO3nWz9p5rPyxzi2u/69V1o3fd6F03eteN3nWjdzpeqQJ3bOlZec3zO6XX9JprPyxz7qy4vjS9ptf0ml7Ta4/Us1SBO2ap0vTa2nuu/bCMpcqeXtNrek2v6TW9U5YqcMcsVZpeW3vPtR+WsVTZ02t6Ta/pNb2md8pSBe6YpUrTa2vvufa/rb/5m7/Z/uqy9/lcbs9SZU+v6TW9ptf0mt6pVS5VPvnkk80DBmPM+fnBDz7ZnprzHumiNui1tffGn+f6c26MOZzxOGmO60vTa3pNr+k1vfZIvVUuVab0ml7Ta3pNr+m1e+5999137/7whz9s5u/+7vn/j+eLL75498Mf/vDl7b//9h827xsz/bzxOdP3zfXG95zy16PpNb2m1/SaXtNrem1Jz1Jlhl7Ta3pNr+k1vXaL3pKlypi//Mu/fPf5559vfl1LlfHr8Tm7t8dYqjS9ptf0ml7Ta3pNr92yZ6kyQ6/pNb2m1/SaXrtFb+lS5Te/+c27v/iLv3j313/91ydLlfHvURkfG58z/RpLlabX9Jpe02t6Ta/ptVv2LFVm6DW9ptf0ml7Ta7foLV2qjNktT/7P/+v/eVmqTJctx59vqdL0ml7Ta3pNr+k1vXbL3mapYowxxpiPd7793e83rzxZOp999vm7f/Evf7j5/92v/+2//Xf5uXMzvmfdFmOMMcaYj2m8UmWGXtNrek2v6TW9dove+7xSZTf/07/4l5v/ysyY6b/A9ni8UqXpNb2m1/SaXtNreu2WPUuVGXpNr+k1vabX9Noteh+yVPm//u//992f/MmfvPvTP/3Tk3+PynQsVZpe02t6Ta/pNb2m127Zs1SZodf0ml7Ta3pNr92i9yFLlV/+6v9490//6T/dzN/+7d/m54yxVGl6Ta/pNb2m1/SaXrtlz1Jlhl7Ta3pNr+k1vXaL3vsuVf79v//37/7xP/7H7/7Nv/k37/71v/7Xm1+P99XnWqo0vabX9Jpe02t6Ta/dsmepMkOv6TW9ptf0ml67Re99lirjVSljifJf/+t/3X71u82vx/vqFSuWKk2v6TW9ptf0ml7Ta7fsWarM0Gt6Ta/pNb2m127Re5+lyn/4D//h3c9+9rPtV+6N942PHX++pUrTa3pNr+k1vabX9Note5YqM/SaXtNrek2v6bVb9CxVLtNrek2v6TW9ptf02pp7lioz9Jpe02t6Ta/ptVv03mep4h//OU+v6TW9ptf0ml7Ta2/Rs1SZodf0ml7Ta3pNr92i9z5LlTH+RbXz9Jpe02t6Ta/pNb32Fr3NUmUEbzV6143edaN33ehdN3rXjd51c673zTffbZYf7zPjP6n8ySf/bDP/6T/9bX7OuRnfc3ob/PW4bvSuG73rRu+60btu9K4bvetmSc8rVWboNb2m1/SaXtNrt+i97ytVxvz9t//w7osvvthMfXw3cz2vVNErek2v6TW9ptf02i17lioz9Jpe02t6Ta/ptVv0LFUu02t6Ta/pNb2m1/TamnuWKjP0ml7Ta3pNr+m1W/QsVS7Ta3pNr+k1vabX9Nqae5YqM/SaXtNrek2v6bVb9CxVLtNrek2v6TW9ptf02pp7lioz9Jpe02t6Ta/ptVv0LFUu02t6Ta/pNb2m1/TamnuWKjP0ml7Ta3pNr+m1W/QsVS7Ta3pNr+k1vabX9Nqae5YqM/SaXtNrek2v6bVb9CxVLtNrek2v6TW9ptf02pp7lioz9Jpe02t6Ta/ptVv0LFUu02t6Ta/pNb2m1/TamnuWKjP0ml7Ta3pNr+m1W/QsVS7Ta3pNr+k1vabX9Nqae5ulijHGGGM+3vn2d7/fLEnedz777PPN1McuzfiedVuMMcYYYz6m8UqVGXpNr+k1vabX9Notel6pcple02t6Ta/pNb2m19bcs1SZodf0ml7Ta3pNr92iZ6lymV7Ta3pNr+k1vabX1tyzVJmh1/SaXtNrek2v3aJnqXKZXtNrek2v6TW9ptfW3LNUmaHX9Jpe02t6Ta/domepcple02t6Ta/pNb2m19bcs1SZodf0ml7Ta3pNr92iZ6lymV7Ta3pNr+k1vabX1tyzVJmh1/SaXtNrek2v3aJnqXKZXtNrek2v6TW9ptfW3LNUmaHX9Jpe02t6Ta/domepcple02t6Ta/pNb2m19bcs1SZodf0ml7Ta3pNr92iZ6lymV7Ta3pNr+k1vabX1tyzVJmh1/SaXtNrek2v3aJnqXKZXtNrek2v6TW9ptfW3NssVUbwVqN33ehdN3rXjd51o3fd6F0353rffPPdZvnxPjOWKp9++sVm6uOXZnzP6W3w1+O60btu9K4bvetG77rRu270rpslPa9UmaHX9Jpe02t6Ta/doueVKpfpNb2m1/SaXtNrem3NPUuVGXpNr+k1vabX9NotepYql+k1vabX9Jpe02t6bc09S5UZek2v6TW9ptf02i16liqX6TW9ptf0ml7Ta3ptzT1LlRl6Ta/pNb2m1/TaLXqWKpfpNb2m1/SaXtNrem3NPUuVGXpNr+k1vabX9NotepYql+k1vabX9Jpe02t6bc09S5UZek2v6TW9ptf02i16liqX6TW9ptf0ml7Ta3ptzT1LlRl6Ta/pNb2m1/TaLXqWKpfpNb2m1/SaXtNrem3NPUuVGXpNr+k1vabX9NotepYql+k1vabX9Jpe02t6bc09S5UZek2v6TW9ptf02i16liqX6TW9ptf0ml7Ta3ptzb3NUsUYY4wxH+98+7vfb5Yk7zufffb5Zupjl2Z8z7otxhhjjDEf03ilygy9ptf0ml7Ta3rtFj2vVLlMr+k1vabX9Jpe02tr7lmqzNBrek2v6TW9ptdu0bNUuUyv6TW9ptf0ml7Ta2vuWarM0Gt6Ta/pNb2m127Rs1S5TK/pNb2m1/SaXtNra+5ZqszQa3pNr+k1vabXbtGzVLlMr+k1vabX9Jpe02tr7lmqzNBrek2v6TW9ptdu0fvQpcqPf/zjzdTHd2Op0vSaXtNrek2v6TW9dsuepcoMvabX9Jpe02t67RY9r1S5TK/pNb2m1/SaXtNra+5ZqszQa3pNr+k1vabXbtGzVLlMr+k1vabX9Jpe02tr7lmqzNBrek2v6TW9ptdu0bNUuUyv6TW9ptf0ml7Ta2vuWarM0Gt6Ta/pNb2m127Rs1S5TK/pNb2m1/SaXtNra+5tliojeKvRu270rhu960bvutG7bvSum3O9b775brP8eJ8ZS5VPP/1iM/XxSzO+5/Q2+Otx3ehdN3rXjd51o3fd6F03etfNkp5XqszQa3pNr+k1vabXbtHzSpXL9Jpe02t6Ta/pNb225p6lygy9ptf0ml7Ta3rtFj1Llcv0ml7Ta3pNr+k1vbbmnqXKDL2m1/SaXtNreu0WPUuVy/SaXtNrek2v6TW9tuaepcoMvabX9Jpe02t67RY9S5XL9Jpe02t6Ta/pNb225p6lygy9ptf0ml7Ta3rtFj1Llcv0ml7Ta3pNr+k1vbbmnqXKDL2m1/SaXtNreu0WPUuVy/SaXtNrek2v6TW9tuaepcoMvabX9Jpe02t67RY9S5XL9Jpe02t6Ta/pNb225p6lygy9ptf0ml7Ta3rtFj1Llcv0ml7Ta3pNr+k1vbbmnqXKDL2m1/SaXtNreu0WPUuVy/SaXtNrek2v6TW9tubeZqlijDHGmI93vv3d7zdLkvedzz77fDP1sUszvmfdFmOMMcaYj2m8UmWGXtNrek2v6TW9doueV6pcptf0ml7Ta3pNr+m1NfcsVWboNb2m1/SaXtNrt+hZqlym1/SaXtNrek2v6bU19yxVZug1vabX9Jpe02u36FmqXKbX9Jpe02t6Ta/ptTX3LFVm6DW9ptf0ml7Ta7foWapcptf0ml7Ta3pNr+m1NfcsVWboNb2m1/SaXtNrt+hZqlym1/SaXtNrek2v6bU19yxVZug1vabX9Jpe02u36FmqXKbX9Jpe02t6Ta/ptTX3LFVm6DW9ptf0ml7Ta7foWapcptf0ml7Ta3pNr+m1NfcsVWboNb2m1/SaXtNrt+hZqlym1/SaXtNrek2v6bU19yxVZug1vabX9Jpe02u36FmqXKbX9Jpe02t6Ta/ptTX3NkuVEbzV6F03eteN3nWjd93oXTd618253jfffLdZfrzPjKXKp59+sZn6+KUZ33N6G/z1uG70rhu960bvutG7bvSuG73rZknPK1Vm6DW9ptf0ml7Ta7foeaXKZXpNr+k1vabX9JpeW3PPUmWGXtNrek2v6TW9douepcplek2v6TW9ptf0ml5bc89SZYZe02t6Ta/pNb12i56lymV6Ta/pNb2m1/SaXltzz1Jlhl7Ta3pNr+k1vXaLnqXKZXpNr+k1vabX9JpeW3PPUmWGXtNrek2v6TW9douepcplek2v6TW9ptf0ml5bc89SZYZe02t6Ta/pNb12i56lymV6Ta/pNb2m1/SaXltzz1Jlhl7Ta3pNr+k1vXaLnqXKZXpNr+k1vabX9JpeW3PPUmWGXtNrek2v6TW9douepcplek2v6TW9ptf0ml5bc89SZYZe02t6Ta/pNb12i56lymV6Ta/pNb2m1/SaXltzb7NUMcYYY8zHO9/+7vebJcn7zmeffb6Z+tilGd+zbosxxhhjzMc0XqkyQ6/pNb2m1/SaXrtFzytVLtNrek2v6TW9ptf02pp7lioz9Jpe02t6Ta/ptVv0LFUu02t6Ta/pNb2m1/TamnuWKjP0ml7Ta3pNr+m1W/QsVS7Ta3pNr+k1vabX9Nqae5YqM/SaXtNrek2v6bVb9CxVLtNrek2v6TW9ptf02pp7lioz9Jpe02t6Ta/ptVv0LFUu02t6Ta/pNb2m1/TamnuWKjP0ml7Ta3pNr+m1W/QsVS7Ta3pNr+k1vabX9Nqae5YqM/SaXtNrek2v6bVb9CxVLtNrek2v6TW9ptf02pp7lioz9Jpe02t6Ta/ptVv0LFUu02t6Ta/pNb2m1/TamnuWKjP0ml7Ta3pNr+m1W/QsVS7Ta3pNr+k1vabX9Nqae5ulygjeavSuG73rRu+60btu9K4bvevmXO+bb77bLD/eZ8ZS5dNPv9hMffzSjO85vQ3+elw3eteN3nWjd93oXTd6143edbOk55UqM/SaXtNrek2v6bVb9LxS5TK9ptf0ml7Ta3pNr625Z6kyQ6/pNb2m1/SaXrtFz1LlMr2m1/SaXtNrek2vrblnqTJDr+k1vabX9Jpeu0XPUuUyvabX9Jpe02t6Ta+tuWepMkOv6TW9ptf0ml67Rc9S5TK9ptf0ml7Ta3pNr625Z6kyQ6/pNb2m1/SaXrtF70OXKj/+8Y83Ux/fjaVK02t6Ta/pNb2m1/TaLXuWKjP0ml7Ta3pNr+m1W/S8UuUyvabX9Jpe02t6Ta+tuWepMkOv6TW9ptf0ml67Rc9S5TK9ptf0ml7Ta3pNr625Z6kyQ6/pNb2m1/SaXrtFz1LlMr2m1/SaXtNrek2vrblnqTJDr+k1vabX9Jpeu0XPUuUyvabX9Jpe02t6Ta+tubdZqhhjjDHm451vf/f7zZLkfeezzz7fTH3s0ozvWbfFGGOMMeZjGq9UmaHX9Jpe02t6Ta/doueVKpfpNb2m1/SaXtNrem3NPUuVGXpNr+k1vabX9NotepYql+k1vabX9Jpe02t6bc09S5UZek2v6TW9ptf02i16liqX6TW9ptf0ml7Ta3ptzT1LlRl6Ta/pNb2m1/TaLXqWKpfpNb2m1/SaXtNrem3NPUuVGXpNr+k1vabX9NotepYql+k1vabX9Jpe02t6bc09S5UZek2v6TW9ptf02i16liqX6TW9ptf0ml7Ta3ptzT1LlRl6Ta/pNb2m1/TaLXqWKpfpNb2m1/SaXtNrem3NPUuVGXpNr+k1vabX9NotepYql+k1vabX9Jpe02t6bc09S5UZek2v6TW9ptf02i16liqX6TW9ptf0ml7Ta3ptzb3NUmUEbzV6143edaN33ehdN3rXjd51c673zTffbZYf7zNjqfLpp19spj5+acb3nN4Gfz2uG73rRu+60btu9K4bvetG77pZ0vNKlRl6Ta/pNb2m1/TaLXpeqXKZXtNrek2v6TW9ptfW3LNUmaHX9Jpe02t6Ta/domepcple02t6Ta/pNb2m19bcs1SZodf0ml7Ta3pNr92iZ6lymV7Ta3pNr+k1vabX1tyzVJmh1/SaXtNrek2v3aJnqXKZXtNrek2v6TW9ptfW3LNUmaHX9Jpe02t6Ta/domepcple02t6Ta/pNb2m19bcs1SZodf0ml7Ta3pNr92iZ6lymV7Ta3pNr+k1vabX1tyzVJmh1/SaXtNrek2v3aJnqXKZXtNrek2v6TW9ptfW3LNUmaHX9Jpe02t6Ta/domepcple02t6Ta/pNb2m19bcs1SZodf0ml7Ta3pNr92iZ6lymV7Ta3pNr+k1vabX1tzbLFWMMcYY8/HOt7/7/WZJ8r7z2Wefb6Y+dmnG96zbYowxxhjzMY1XqszQa3pNr+k1vabXbtHzSpXL9Jpe02t6Ta/pNb225p6lygy9ptf0ml7Ta3rtFj1Llcv0ml7Ta3pNr+k1vbbmnqXKDL2m1/SaXtNreu0WPUuVy/SaXtNrek2v6TW9tuaepcoMvabX9Jpe02t67RY9S5XL9Jpe02t6Ta/pNb225p6lygy9ptf0ml7Ta3rtFj1Llcv0ml7Ta3pNr+k1vbbmnqXKDL2m1/SaXtNreu0WPUuVy/SaXtNrek2v6TW9tuaepcoMvabX9Jpe02t67RY9S5XL9Jpe02t6Ta/pNb225p6lygy9ptf0ml7Ta3rtFj1Llcv0ml7Ta3pNr+k1vbbmnqXKDL2m1/SaXtNreu0WPUuVy/SaXtNrek2v6TW9tubeZqkygrcavetG77rRu270rhu960bvujnX++ab7zbLj/eZsVT59NMvNlMfvzTje05vg78e143edaN33ehdN3rXjd51o3fdLOl5pcoMvabX9Jpe02t67RY9r1S5TK/pNb2m1/SaXtNra+5ZqszQa3pNr+k1vabXbtGzVLlMr+k1vabX9Jpe02tr7lmqzNBrek2v6TW9ptdu0bNUuUyv6TW9ptf0ml7Ta2vuWarM0Gt6Ta/pNb2m127RW7JU2S1QdvPZZ5+/++STTzZz/LExu6+zVGl6Ta/pNb2m1/SaXrtlz1Jlhl7Ta3pNr+k1vXaL3ocuVb7//e9v5vhjY3ZfZ6nS9Jpe02t6Ta/pNb12y56lygy9ptf0ml7Ta3rtFr0lS5XjGf/4z5//+Z9vpj6+G0uVptf0ml7Ta3pNr+m1W/YsVWboNb2m1/SaXtNrt+h9yFLl333+P7+8UuXLL7/MzxljqdL0ml7Ta3pNr+k1vXbLnqXKDL2m1/SaXtNreu0Wvfddqvz6179+973vfe/dz372s82MX4/31edaqjS9ptf0ml7Ta3pNr92yt8qlyviX4o0HcMaY8/ODH3yyPTXnPdJFbdBreu0Reu+7VPnJT36yeaXK7t+fMl6p8tOf/jQ/11Kl6TW9ptf0ml7Ta3rtlr3NUmVtM54sApeNs1JnyBhjpvPt736/+XekLJn/5X/93979D//j9ze/Hv+y2jHj1+N942PTzz0343vWbTHGGGOM+Zhmla9UsVSBZZaelUfaFA96Ta89Qu99Xqky/h0qv/jFLzaLkel/6We8b3zs+PO9UqXpNb2m1/SaXtNreu2WPUsVuGOWKk2v6bVH6C1dqkz/MZ/jpcqY8Y8FHf9Lay1Vml7Ta3pNr+k1vabXbtmzVIE7ZqnS9Jpee4TekqXK7l9Ou/sX0tZS5fhzxliqNL2m1/SaXtNrek2v3bJnqQJ3zFKl6TW99gi9JUuV8QqV6atQaqky5vhfWmup0vSaXtNrek2v6TW9dsuepQrcMUuVptf02iP0Li1V6t+XMrdUGbP7966MX1uqNL2m1/SaXtNrek2v3bJnqQJ3zFKl6bW198Z/Inz8mTbGnJ9PPpn/z+m7vjS9ptfW1htnvq4FxpjDGWflLc6vpQrcsaVn5TXP75Re02uu/bDMubPi+tL0ml5bW8/9IywzzspbnF9LFbhjS8/Ka57fKb2m11z7YZlzZ8X1pek1vba2nvtHWGaclbc4v5YqcMeWnpXXPL9Tek2vufbDMufOiutL02t6bW0994+wzDgrb3F+N0uVEbzV3KLnwgHLjLNSZ+hDZ43Xg+noXTdr77n2wzK3uPa7Xl03eteN3vuN+0dYZpyVtzi/XqkCd2zpWXnN8zul1/Saaz8sc+6suL40vabX1tZz/wjLjLPyFufXUgXu2NKz8prnd0qv6TXXfljm3FlxfWl6Ta+tref+EZYZZ+Utzq+lCtyxpWflNc/vlF7Ta679sMy5s+L60vSaXltbz/0jLDPOylucX0sVuGNLz8prnt8pvabXXPthmXNnxfWl6TW9trae+0dYZpyVtzi/lipwx5aeldc8v1N6Ta+59sMy586K60vTa3ptbT33j7DMOCtvcX4tVeCOLT0rr3l+p/SaXnPth2XOnRXXl6bX9Nraeu4fYZlxVt7i/FqqwB1belZe8/xO6TW95toPy5w7K64vTa/ptbX13D/CMuOsvMX5tVSBO7b0rLzm+Z3Sa3rNtR+WOXdWXF+aXtNra+u5f4Rlxll5i/NrqQJ3bOlZec3zO6XX9JprPyxz7qy4vjS9ptfW1nP/CMuMs/IW53ezVFnbuHDAMrsLhzEfw7j2wzKu/cY81rh/hGXe6v7RK1Xgji09K695fqf0ml5z7Ydlzp0V15em1/Ta2nruH2GZcVbe4vxaqsAdW3pWXvP8Tuk1vebaD8ucOyuuL02v6bW19dw/wjLjrLzF+bVUgTu29Ky85vmd0mt6zbUfljl3Vlxfml7Ta2vruX+EZcZZeYvza6kCd2zpWXnN8zul1/Saaz8sc+6suL40vabX1tZz/wjLjLPyFufXUgXu2NKz8prnd0qv6TXXfljm3FlxfWl6Ta+tref+EZYZZ+Utzq+lCtyxpWflNc/vlF7Ta679sMy5s+L60vSaXltbz/0jLDPOylucX0sVuGNLz8prnt8pvabXXPthmXNnxfWl6TW9trae+0dYZpyVtzi/lipwx5aeldc8v1N6Ta+59sMy586K60vTa3ptbT33j7DMOCtvcX4tVeCOLT0rr3l+p/SaXnPth2XOnRXXl6bX9Nraeu4fYZlxVt7i/G6WKiN4q7lFz4UDlhlnpc7Qh84arwfT0btu1t5z7YdlbnHtd726bvSuG733G/ePsMw4K29xfr1SBe7Y0rPymud3Sq/pNdd+WObcWXF9aXpNr62t5/4Rlhln5S3Or6UK3LGlZ+U1z++UXtNrrv2wzLmz4vrS9JpeW1vP/SMsM87KW5xfSxW4Y0vPymue3ym9ptdc+2GZc2fF9aXpNb22tp77R1hmnJW3OL+WKnDHlp6V1zy/U3pNr7n2wzLnzorrS9Nrem1tPfePsMw4K29xfi1V4I4tPSuveX6n9Jpec+2HZc6dFdeXptf02tp67h9hmXFW3uL8WqrAHVt6Vl7z/E7pNb3m2g/LnDsrri9Nr+m1tfXcP8Iy46y8xfm1VIE7Ns7Kd999d3G++abffzzf/u73+f7j0evR61nac+2HZc5d+11fevR69HrW1nP/CMuMs2KpsuXCAcuMs/KHP/zh4vzd3/X7j+fvv/2HfP/x6PXo9SztufbDMueu/a4vPXo9ej1r67l/hGXGWbFU2XLh4L799t3XP/7q3S/HL3/z9buvfv7bzXv/GM49sJ6OByU9ej1v1XPth2XOXftdX3r0evR61tZz/wjLjLPyZkuVtc37XTjGE9jvPX3Nj959/Zvtu7Z++/MfbVo/+iM+qYX0q682f/bqz+Utje8x7qiN+Rjm/a798Lhc+415rHH/CMuMs1L7hT/2fASvVHleqvzoxz86Wp6M9z+9b3zMUoWP1Dgr9Xc0jsff6enR63mrngeNsMy5a7/rS49ej17P2nruH2GZcVbeYr/x0SxVvvr51+9+9OOvn97a+s3z219/OV2q7F7Vsp3d54/P3b3vab761XjnL999NXnf977c/MMcT6aN7T/isXnf5BUJm9727e3teLld4xUM07d3pp+3eZXDtL2/Hc+3bWd6G/f/uMn4vRwskravmpj7OWyaL6+smM5T8+j2b179s337l08/2/3teW6+vL29HS+d7bs3ph+b/p63P+OX7zH3vTdfP2me+5m+3Ibj2zHzc53cjvw9Tb7P+P3vvv7wZzvzZ+HA4fc/uA3vYXxd3fkejwclPXo9b9Ubf56By85d+11fevR69HrW1nP/CMuMs2KpsvV+F47dE9+xYNg/eR1PwMcT3fHEd/eEd/Mk+OUJ8/NCYvNE9ujJ8q758kR58sR488R+8uT/+XMOn0g/P9nevn3cPrcA2Lw/WrvP3yw+dh/b/b7Hrye3a9MZr9DZf4/dk//8ORw0t29Pb9/B7d8ucbZvj85+ETC9PZOf7Xhr+nvYfOzw97e5XS/LjPHxyYJo5nvvP39836Olzc7Rz3761272Z/DSHQ5/xtPeprVrj/e//H7jr9/05/vi8POeGzO/jzPOPbCejgclPXo9b9XzoBGWOXftd33p0evR61lbz/0jLDPOiqXK1vtdOPZPfF+eoE+esO7fd2zyhPnoyfepw0XAzv5J+uQJ8uZJ+df7t4/b4+P1vXafd+5J/fbtze9n7kn4tvP1l7vb+7yk+Orl5/C8nDhuvrx9fPsmt3/8LKevCNq8XZ3RmN626W2d+/1vf9/7RdWTM9972Py1ffo591/fJ5OvH/btMz+Dcz//l97kr8PW/s/Z+NjMn4UDk88bjm7rUuceWE/Hg5IevZ636nnQCMucu/a7vvTo9ej1rK3n/hGWGWfFUmXr/S4c8YR48iR+/2T3yeb945UD+9l8XT2hHa2Dz50+Md6+auJlcbB7gnz8/08fiu85u1Q5+djxk//J72dz++aXKr/cLRDG208/k/3PYXfbD+flZzS609uw+9kc///Th6av/Dj563DyPZ5/Hgev8Jjafc1L78mZ770x3q6fwc7m49PbsPvcMz+DcTsWLlWOv/75647/DOz+/zmxd9qY/nVeanxd3fkejwclPXo9b9H7xS9+sfnzDFx27trv+tKj16PXs6ae+0dYbpwVS5Wt97twPD85fX5COp4sf/Xu68mT/cNXEEyWB9OvO36yvn3SvX+SO96OJ8YvC4jtE+ef756Qb9/eLVWm7eOlxc7u8w4+f/p7Gya/h/F5Z5Yqu85YroyvP1yq1JP8rePbt+2MfzfN6c/q+faMv1672XzO3O9xmPvYeP/42e3+f7j4vac/83Dw+U9evveZn8H0+2++x+Tn/9I7/usydXy7tm/nUmX6/gt/XcLf/M3fbH7mX3zxxckd8PGMO+nxeZc+14OcHr2eS73dn7lzvV//+tfvfvrTn777/ve//57XfnhMl679x+dt7trvetWj16PX86G9uXM57bl/hPc3zoqlytb7XTimT3Cffz2+fveEd3apMp487z7v+Mn35gnuvrF5dcX2Ce/ovTyZfnmSvvu+uyfFkyfMs0/sj0w+b/qPwIzv9/L5m9u8+x5xG8fnHTzxf+psb8f+57BtThcXk87J7dt+/OV9x7+fF88/g+dO/fy2C6BNb/d7mNyW8X23t+nlZ3zmex//jF5u/9TxbZ383mZ/BpPbcfh7enL0/fc/p+ff7/TPWf5ZOHD8/vdfqgzjz/APf/jDd3/5l3/57je/+c3BHfN0xp303B34dDxo6tHrudTb/Zmb63355ZebP8Pj/8fb73ftf3vH157NdeUDzjG8r3PX/uPzNnftd73q0evR6/nQ3ty53PXu/f7xTeyeN8S8PP/jozf+eluqbI0fxnKHT3wPnsA/GQ9yXw7SZimxPWBPT5xfPnb85PvJc2d3EH+5/x4HB3b6xHl6YCdPmI/bx0uLnYPPmz7Bfm7vbsv0AfzhbZksLbadzQP8ya8Pb9++eXChOb59m+8xeZJw/Pt5cfjX4fC2HT3JmP512LWmy4zN1z79fua+98nPcGYhcXAbnmf/85v5GUxv28zsGs9PoLZztIjJPwsHDr//YWO58XXjznbcMf/FX/zFu7/+679+uWOezriTnrsDn44HTT16PZd6uz9zx73xUubxd95+8pOfbP5O3O7948/zPRnXgJdrysl1Cf54zl37j8/b3LXf9apHr0ev50N7c+fyP/7Hj+P+8U3snids39yZ/o1YPn7jrFiqbLlwsFYHT6JWYPfAesx4Sfh4cP3555+/vG83405/7g58Oh409ej1XOrt/sztetOXMo/FyvHn39u1f3o9OL02HC5ODz/2/Oq2549NX8UXS+6D90UzF8HbpfTkweX01XWHt/W5+fL2wTJ6/zcoNqYf27XH998uhOsVfC+36WVpfPT+p8kHu8e/r+kD5ZnbePD72nzO/mPTB9Vru45/iPF7352b42v/8fmdu/a7XvXo9ej1fGjv+Fzu7h//yT/5OO4f38TR/d7O8fX/Rz//en8/dPA3NOfut0//Rujsx16+//zXHN8HXb5/Orqf5qzxs36zpcoI3mpu0Rs/DFijtT0YH2dl3KHv5j//59+8++f//C/f/bN/9sPNr6cf+/TTLzYzfd/xjDv9ev+Hjt51c++96Z+5v/qr55cyj/8//rzd3Nu1/+V6EA/kxscOFg9Hrz7cXUc2i4jxoG7TeHpgNelsGk8/k+mDrZcHgAfN7dvT23Bwm7aLjO3bh9ex6e15/rzdxw5+D5uP7b/f+Njmdr0sVcbHd0uM5+budj8vOJ6/9uX3uzV9MHngpfvs5fuduY0Hv6/N9/y4lyrTs/Mh137Xq+tG77p59N7Hfv/4JuK+eDi+/u/vO8/c553cbx/e/x18zct91bR3+DXT+6Tj+6DL90+Hjxs4b5yVt9hveKUK3LFxVnZ/t2M6n3zyybs//dM/ffev/tW/2rw97rjH+8Ycf+50Pvvs83z/8Yxevf949HoepTf+vI1XpfzZn/355v9/9rOf5eft5t6u/ZsHU0+3+WCZsXH8AGiyZDh6sv9i+2Dwo/jP4Z8Yt337+9p+/s77LFUu3caD39fRz/ljXKrUGRpn7k/+ZH/t372vrv2uV/v58Y9//PLrR/j9TueP0Zv+POfm0X9+u/vHP//zw/vHuZ7nRgtM7vemTpYqR/dBz2+fud/e/Hp/fzJ/HzJtjF8fLVXyPvjpMy/ePx3fNs4ZZ+Ut9huWKnDHzj+w/hNLlQuj13Or3u5B48e8VBkPcjYPyqZP9J9+dbgAef7czYOm46XAzvYB10fxn8MfTlqTB5dHH3v5PUwdf/3ue5+5jQcPRsfv98xSZfr1+f1XbtzuOkPjzP2jf7S/9u/eV9d+16v9WKpcnvfpWaqcznFvd/9oqXJDk/u5qePr//Sav78/PHO/PT426Z7e1xzepzx/7Pm+9fT9R1//5Nz9Uy98OGf83CxVtsYPg0cwLhLbB71PF6Wv7vCB7VsbZ2X6z9yO/wrE+K9BjP8qxH/7b//t5f3jpaO7O+bp5x/PeHlqvf94Rq/efzx6PY/S2/2ZG73j/5JBzb1d+/cPjLYPnmpRsfH89uZB09GT/Re7B4Pb/7/r/xz+yYPTw9s+fUA5fTB54KD3/Hkv32fmNh48UD36OR8/aJ27bfdi/DWbnp3ptf+//Jf9tX/M3LXf9apHr0ev50N703M5vX+c642Pc8HB/dzeydJict+yf/vC/fbR1zx/3uRzNqaN8evpfcv+vubwPujpM2fvn3a9aZdLxlmxVNly4Xgg4wHy01/vg7+LyWLjZ7e7wx3/9YfxLyusB8/jTnrugfV0PGjq0eu51Nv9mdv1xr+Ib/wXDcbflfvY/kW1z0/i929vHqjtHtxtrnO7a9zhwmGzLBif9/Jg8PmB2F3/5/Czs/3ao9sxfTB5YNIdNo3N2/O3cf/9n2xu72MsVY6v/cfnd+7a73rVo9ej1/OhveNzubt/9C+qvcLM/dzx9X//atHD+5PNx3ZfP7nfPrzPmL79fP/5ch+2+Zrpx6b3Lfv7muPe/P3T7v55ej/NJeOvgaXKlgsHLLN7YD3+qw/jQfX4r0Ac3xGPGXf6cw+sp+NBU49ez6Xe7s/ccW/3n1Qe/6WDe/5PRtYDo/3y5PlB0Pg9jTl4MLR5wr/72GRpsX0wN7q7B3bj1/ulw2Fz//4nuVSZPKCbebC5f9C2ffPgtk0fED7ZPmDczPSB58Gi5/n38/yz2N3OX84+MJw+mDww/V6bOfq9xPs3P7eDrzme/fJl+v78/is3bvc4M3XtPz5vc9d+16sevR69ng/tzZ3L3X9S+d7vH9/EzP3c8dLiR19+9XIfcnj9P73fnt6XHc72vmd6X/V0X7i/zz5s7T4+9H3Vc+/kY5uvOb3vZN74uVmqbI0fxv0af/B3D/ION6D5gPTJ8wHa/x21/UHcvu/kweX0wE4eaE6M5rnvmxeJ7cemB3p/sdke6PEvOzz+2OjvHlQ/2bQnb8/3Jrd98yC5fi9nPu/ggfX4/Z65jcPB509/3vdr/F7Gy73Hy77Hy7+nd8zTGXf6c3fg0/GgqUev51Jv92durnf8jwSNX8Mfx7g//jiu+8O5a//xeZu79rte9ej16PV8aG/uXO567h//OMZzkoPnBhf04n/++deHuXXvsY2zYqmydd8Xjv3BODiI2yf0z4uO5yf/043leKn3yxLk5cn/ZKlytLR47s4fwv1S5fClzccLj3x7t/Cp27y7TZuPbbtnliqbXx98zbS3v13Pi5f6vZz5vNE72EifuY2bn8Pue287B197f8bfmRxnpe6Uj2fcSc/dgU/Hg6YevZ5Lvd2fuXO98Xfixt+RG39nzoNG/ng+nqXKpWv/8Xmbu/a7XvXo9ej1fGhv7lxOe+4fb2/znMtS5aM2zoqlytZ9Xzh2B+PoAdxYPEyfxG9ePfL88c0CZLy6YrKIeH5p2vbrr1mqHH/fzaJhf7umC5Dn3uHFZn/xOfOxM0uV44vXePv5Y5Pbvvn6r2d+L2c+b2apMnsbp389jn4O92qclemd8dx4kNOj1/MWvfGPBHnQCMucu/a7vvTo9ej1rKnn/hGWG2fFUmXrvi8cz0/sj191sVk0zCw3xhP/r361X8L88sunr/3V5El/LC2eFwe777Wfg1di7N4/+dqnjxwse2qpMu3tv/75Y7v+cLiwmP+a6ZJj//3Gx8bP6Pj/nz9v78znzSxVFt/GfGXMfRm/j+M73xoPSnr0et6qN/48A5edu/a7vvTo9ej1rK3n/hGWGWflzZYqa5v7vnDEk/9hPKk/90qVX+3+/5fP/y306Sspzi5VJt/jZFHz9Ivj73v0Co1aqkyXEnvPH9svSCZvx+3bvf2y1Ngabx8sVX6++9qj38uLM583s1SZvY0Hn/txGGdl3FEb8zGMB42wjGu/MY817h9hmXFWar/wxx6vVLm5mSf9m2XGbmHx/GR/unjYLUDGv1tl8/7p8uOapcrTW9N/p8p+qfHscKmyfftl+TC+drek2N7mg9/PtntmqbL59e73UT+Dl9t29Ht5cebzRi+WKnkbt7+X3cLo4HbdsXFW6u9oHI+/09Oj1/NWPQ8aYZlz137Xlx69Hr2etfXcP8Iy46y8xX7DUuXmDpcDB6/UGMuHp9/bZibLgJcFyHTpsPn1kqXKtred3dJgv1R5MvN9h+kCZGezeNl9/svHnr/XV1/uWwf9maXKMO29/Cy2vcO355cq+XkzS5W8jcP25/v8sfpe92f8XurO93g8KOnR63mr3vjzDFx27trv+tKj16PXs7ae+0dYZpwVS5UtF4412i4spkuK1bmH23hb5x5YT8eDkh69nrfqufbDMueu/a4vPXo9ej1r67l/hGXGWbFU2XLhWCNLlTU698B6Oh6U9Oj1vFXPtR+WOXftd33p0evR61lbz/0jLDPOiqXKlgsHLHPugfV0PCjp0et5q55rPyxz7trv+tKj16PXs7ae+0dYZpwVS5UtFw5YZpyV77777uJ8802//3i+/d3v8/3Ho9ej17O059oPy5y79ru+9Oj16PWsref+EZYZZ8VSZcuFA5ZZelZe8/xO6TW95toPy5w7K64vTa/ptbX13D/CMuOsvMX5tVSBO7b0rLzm+Z3Sa3rNtR+WOXdWXF+aXtNra+u5f4Rlxll5i/NrqQJ3bOlZec3zO6XX9JprPyxz7qy4vjS9ptfW1nP/CMuMs/IW53ezVBnBW80tei4csMw4K3WGPnTWeD2Yjt51s/aeaz8sc4trv+vVdaN33ei937h/hGXGWXmL8+uVKnDHlp6V1zy/U3pNr7n2wzLnzorrS9Nrem1tPfePsMw4K29xfi1V4I4tPSuveX6n9Jpec+2HZc6dFdeXptf02tp67h9hmXFW3uL8WqrAHVt6Vl7z/E7pNb3m2g/LnDsrri9Nr+m1tfXcP8Iy46y8xfm1VIE7tvSsvOb5ndJres21H5Y5d1ZcX5pe02tr67l/hGXGWXmL82upAnds6Vl5zfM7pdf0mms/LHPurLi+NL2m19bWc/8Iy4yz8hbn11IF7tjSs/Ka53dKr+k1135Y5txZcX1pek2vra3n/hGWGWflLc6vpQrcsaVn5TXP75Re02uu/bDMubPi+tL0ml5bW8/9IywzzspbnF9LFbhjS8/Ka57fKb2m11z7YZlzZ8X1pek1vba2nvtHWGaclbc4v5YqcMeWnpXXPL9Tek2vufbDMufOiutL02t6bW0994+wzDgrb3F+N0uVtY0LByyzu3AY8zGMaz8s49pvzGON+0dY5q3uH71SBe7Y0rPymud3Sq/pNdd+WObcWXF9aXpNr62t5/4Rlhln5S3Or6UK3LGlZ+U1z++UXtNrrv2wzLmz4vrS9JpeW1vP/SMsM87KW5xfSxW4Y0vPymue3ym9ptdc+2GZc2fF9aXpNb22tp77R1hmnJW3OL+WKnDHlp6V1zy/U3pNr7n2wzLnzorrS9Nrem1tPfePsMw4K29xfi1V4I4tPSuveX6n9Jpec+2HZc6dFdeXptf02tp67h9hmXFW3uL8WqrAHVt6Vl7z/E7pNb3m2g/LnDsrri9Nr+m1tfXcP8Iy46y8xfm1VIE7tvSsvOb5ndJres21H5Y5d1ZcX5pe02tr67l/hGXGWXmL82upAnds6Vl5zfM7pdf0mms/LHPurLi+NL2m19bWc/8Iy4yz8hbn11IF7tjSs/Ka53dKr+k1135Y5txZcX1pek2vra3n/hGWGWflLc7vZqkygreaW/RcOGCZcVbqDH3orPF6MB2962btPdd+WOYW137Xq+tG77rRe79x/wjLjLPyFufXK1Xgji09K695fqf0ml5z7Ydlzp0V15em1/Ta2nruH2GZcVbe4vxaqsAdW3pWXvP8Tuk1vebaD8ucOyuuL02v6bW19dw/wjLjrLzF+bVUgTu29Ky85vmd0mt6zbUfljl3Vlxfml7Ta2vruX+EZcZZeYvza6kCd2zpWXnN8zul1/Saaz8sc+6suL40vabX1tZz/wjLjLPyFufXUgXu2NKz8prnd0qv6TXXfljm3FlxfWl6Ta+tref+EZYZZ+Utzq+lCtyxpWflNc/vlF7Ta679sMy5s+L60vSaXltbz/0jLDPOylucX0sVuGNLz8prnt8pvabXXPthmXNnxfWl6TW9trae+0dYZpyVtzi/lipwx5aeldc8v1N6Ta/94AefbP5MG2POzyeffLI9NadcX5pe02tr640zX9cCY8zhjLPyFufXUgXu2NKz8prnd0qv6TW9ptf0ml7Ta3pNr+k1vfZIvc1SZW1jqQLLjLNSZ8gYY4wxxhhjzB9/vFIF7phXqjS9ptf0ml7Ta3pNr+k1vabX9Npb9CxV4I5ZqjS9ptf0ml7Ta3pNr+k1vabX9Npb9CxV4I5ZqjS9ptf0ml7Ta3pNr+k1vabX9Npb9CxV4I5ZqjS9ptf0ml7Ta3pNr+k1vabX9Npb9Fa5VPGfDTNm2Yz/BO0Sj3RRG/SaXtNrek2v6TW9ptf0ml7Ta2/RW+VSZUqv6TW9ptf0ml7Ta3pNr+k1vabX9Jpe02u37FmqzNBrek2v6TW9ptf0ml7Ta3pNr+k1vabXHqlnqTJDr+k1vabX9Jpe02t6Ta/pNb2m1/SaXnuknqXKDL2m1/SaXtNrek2v6TW9ptf0ml7Ta3rtkXqbpcoI3mr0rhu960bvutG7bvSuG73rRu+60btu9K4bvetG77rRu270rpuPoeeVKjP0ml7Ta3pNr+k1vabX9Jpe02t6Ta/ptUfqWarM0Gt6Ta/pNb2m1/SaXtNrek2v6TW9ptceqWepMkOv6TW9ptf0ml7Ta3pNr+k1vabX9Jpee6SepcoMvabX9Jpe02t6Ta/pNb2m1/SaXtNreu2RepYqM/SaXtNrek2v6TW9ptf0ml7Ta3pNr+m1R+pZqszQa3pNr+k1vabX9Jpe02t6Ta/pNb2m1x6pZ6kyQ6/pNb2m1/SaXtNrek2v6TW9ptf0ml57pJ6lygy9ptf0ml7Ta3pNr+k1vabX9Jpe02t67ZF6lioz9Jpe02t6Ta/pNb2m1/SaXtNrek2v6bVH6m2WKsYYY4wxxhhjjDHm/cYrVWboNb2m1/SaXtNrek2v6TW9ptf0ml7Ta4/Us1SZodf0ml7Ta3pNr+k1vabX9Jpe02t6Ta89Us9SZYZe02t6Ta/pNb2m1/SaXtNrek2v6TW99kg9S5UZek2v6TW9ptf0ml7Ta3pNr+k1vabX9Noj9SxVZug1vabX9Jpe02t6Ta/pNb2m1/SaXtNrj9SzVJmh1/SaXtNrek2v6TW9ptf0ml7Ta3pNrz1Sz1Jlhl7Ta3pNr+k1vabX9Jpe02t6Ta/pNb32SD1LlRl6Ta/pNb2m1/SaXtNrek2v6TW9ptf02iP1LFVm6DW9ptf0ml7Ta3pNr+k1vabX9Jpe02uP1NssVUbwVqN33ehdN3rXjd51o3fd6F03eteN3nWjd93oXTd6143edaN33XwMPa9UmaHX9Jpe02t6Ta/pNb2m1/SaXtNrek2vPVLPUmWGXtNrek2v6TW9ptf0ml7Ta3pNr+k1vfZIPUuVGXpNr+k1vabX9Jpe02t6Ta/pNb2m1/TaI/UsVWboNb2m1/SaXtNrek2v6TW9ptf0ml7Ta4/Us1SZodf0ml7Ta3pNr+k1vabX9Jpe02t6Ta89Us9SZYZe02t6Ta/pNb2m1/SaXtNrek2v6TW99kg9S5UZek2v6TW9ptf0ml7Ta3pNr+k1vabX9Noj9SxVZug1vabX9Jpe02t6Ta/pNb2m1/SaXtNrj9SzVJmh1/SaXtNrek2v6TW9ptf0ml7Ta3pNrz1Sb7NUMcYYY4wxxhhjjDHvN16pMkOv6TW9ptf0ml7Ta3pNr+k1vabX9Jpee6SepcoMvabX9Jpe02t6Ta/pNb2m1/SaXtNreu2RepYqM/SaXtNrek2v6TW9ptf0ml7Ta3pNr+m1R+pZqszQa3pNr+k1vabX9Jpe02t6Ta/pNb2m1x6pZ6kyQ6/pNb2m1/SaXtNrek2v6TW9ptf0ml57pJ6lygy9ptf0ml7Ta3pNr+k1vabX9Jpe02t67ZF6lioz9Jpe02t6Ta/pNb2m1/SaXtNrek2v6bVH6lmqzNBrek2v6TW9ptf0ml7Ta3pNr+k1vabXHqf37t3/DxvgSuiqKsFCAAAAAElFTkSuQmCC;" vertex="1" parent="1">
          <mxGeometry x="310" y="320" width="1109" height="424" as="geometry" />
        </mxCell>
      </root>
    </mxGraphModel>
  </diagram>
</mxfile>
